<svg width="205" height="308" viewBox="0 0 205 308" fill="none" xmlns="http://www.w3.org/2000/svg">
<path d="M126.03 155.748C132.155 149.074 135.107 140.422 134.349 131.391L134.05 127.814C124.015 131.8 108.714 132.25 102.5 132.25C96.2858 132.25 80.9846 131.8 70.9501 127.814L70.6509 131.391C69.8928 140.422 72.8453 149.074 78.9698 155.748C85.0942 162.422 93.453 166.099 102.5 166.099C111.547 166.099 119.906 162.422 126.03 155.748Z" fill="#450B1F"/>
<path d="M75.0596 117.613C79.7078 119.332 89.1837 121.27 102.49 121.27C115.796 121.27 125.272 119.342 129.92 117.613C125.272 115.895 115.796 113.966 102.49 113.966C89.1837 113.966 79.7078 115.895 75.0596 117.613Z" fill="#450B1F"/>
<path d="M205 102.667C205 45.9682 159.106 0 102.5 0C45.8936 0 0 45.9682 0 102.667V205.333C0 262.032 45.8936 308 102.5 308C159.106 308 205 262.032 205 205.333V102.667ZM138.499 238.233V249.223H66.4814V238.233H97.0039V176.719C87.0492 175.431 77.7428 170.665 70.8802 163.192C62.7708 154.36 58.7011 142.431 59.7086 130.471L65.7432 58.7965H139.257L145.291 130.471C146.299 142.431 142.219 154.35 134.12 163.192C127.257 170.665 117.951 175.431 107.996 176.719V238.233H138.519H138.499Z" fill="#450B1F"/>
<path d="M132.275 106.753L129.162 69.7766H75.8279L72.7158 106.753C82.7004 103.366 96.6351 102.966 102.5 102.966C108.365 102.966 122.29 103.366 132.284 106.753H132.275Z" fill="#450B1F"/>
</svg>
