<svg width="961" height="308" viewBox="0 0 961 308" fill="none" xmlns="http://www.w3.org/2000/svg">
<path d="M126.03 155.748C132.155 149.074 135.107 140.422 134.349 131.391L134.05 127.814C124.015 131.8 108.714 132.25 102.5 132.25C96.2856 132.25 80.9844 131.8 70.9499 127.814L70.6507 131.391C69.8926 140.422 72.8451 149.074 78.9696 155.748C85.094 162.422 93.4528 166.099 102.5 166.099C111.547 166.099 119.906 162.422 126.03 155.748Z" fill="#450B1F"/>
<path d="M75.0596 117.613C79.7078 119.332 89.1837 121.27 102.49 121.27C115.796 121.27 125.272 119.342 129.92 117.613C125.272 115.895 115.796 113.966 102.49 113.966C89.1837 113.966 79.7078 115.895 75.0596 117.613Z" fill="#450B1F"/>
<path d="M205 102.667C205 45.9682 159.106 0 102.5 0C45.8936 0 0 45.9682 0 102.667V205.333C0 262.032 45.8936 308 102.5 308C159.106 308 205 262.032 205 205.333V102.667ZM138.499 238.233V249.223H66.4814V238.233H97.0039V176.719C87.0492 175.431 77.7428 170.665 70.8802 163.192C62.7708 154.36 58.7011 142.431 59.7086 130.471L65.7432 58.7965H139.257L145.291 130.471C146.299 142.431 142.219 154.35 134.12 163.192C127.257 170.665 117.951 175.431 107.996 176.719V238.233H138.519H138.499Z" fill="#450B1F"/>
<path d="M132.275 106.753L129.162 69.7766H75.8277L72.7156 106.753C82.7002 103.366 96.6349 102.966 102.5 102.966C108.365 102.966 122.29 103.366 132.284 106.753H132.275Z" fill="#450B1F"/>
<path d="M301 247.578V58H327.192V219.272H329.598C329.598 219.272 359.514 173.707 371.502 146.647C383.48 119.587 394.161 90.045 403.514 58H432.102C421.591 95.6483 409.732 130.515 394.55 162.6C379.358 194.685 359.843 223.011 338.013 247.578H301Z" fill="#450B1F"/>
<path d="M484.905 100.743C481.881 97.7321 478.038 96.2266 473.376 96.2266C468.715 96.2266 464.962 97.7321 461.907 100.743C458.853 103.764 457.326 107.603 457.326 112.259C457.326 116.915 458.853 120.754 461.907 123.765C464.962 126.776 468.785 128.291 473.376 128.291C477.968 128.291 481.881 126.776 484.905 123.765C487.92 120.754 489.427 116.905 489.427 112.259C489.427 107.613 487.92 103.764 484.905 100.743ZM478.697 226.919C468.595 226.759 463.834 222.632 464.423 214.037C464.742 209.71 465.551 205.642 466.838 201.843C468.116 198.035 469.543 194.226 471.12 190.387C472.698 186.549 474.005 182.441 475.063 178.044C478.018 165.92 476.67 156.777 471.021 150.605C465.371 144.444 455.489 141.363 441.384 141.363C437.512 141.363 433.639 141.542 429.766 141.891C426.032 142.24 422.309 142.948 418.576 143.985C415.911 150.286 413.146 156.488 410.251 162.6C409.752 163.657 409.243 164.703 408.734 165.76C414.713 164.285 426.681 162.59 432.73 162.59C437.851 162.59 444.738 162.64 449.001 167.266C450.248 168.612 451.546 172.859 450.428 177.256C449.51 181.195 448.242 185.282 446.585 189.54C444.948 193.807 443.441 198.204 442.063 202.721C440.686 207.247 439.827 211.904 439.498 216.679C438.849 227.437 441.474 235.603 447.424 241.177C453.363 246.75 462.496 249.542 474.844 249.542C480.623 249.542 485.734 248.734 490.206 247.129C494.668 245.524 498.9 243.58 502.913 241.276L506.935 218.963C503.522 220.927 489.247 227.098 478.687 226.909L478.697 226.919Z" fill="#450B1F"/>
<path d="M515.49 247.578L533.907 143.327H554.878L554.19 168.213L540.205 247.578H515.49ZM577.717 247.578L589.236 182.082C590.284 176.12 589.805 171.603 587.809 168.562C585.802 165.511 582.438 163.986 577.717 163.986C573.315 163.986 569.212 165.182 565.409 167.575C561.606 169.968 558.222 173.936 555.268 179.48C552.313 185.023 549.947 192.541 548.181 202.053L553.002 164.185H556.745C558.971 156.907 562.784 151.283 568.164 147.315C573.544 143.347 580.212 141.363 588.148 141.363C599.048 141.363 606.674 144.793 611.036 151.642C615.398 158.492 616.407 168.642 614.041 182.082L602.422 247.578H577.707H577.717Z" fill="#450B1F"/>
<path d="M670.668 226.929C675.589 226.929 680.859 226.161 686.469 224.616C692.079 223.08 697.479 220.927 702.67 218.175L709.467 238.923C703.169 242.533 696.421 245.205 689.234 246.94C682.047 248.674 675.17 249.542 668.602 249.542C654.557 249.542 643.577 245.903 635.661 238.624C627.746 231.346 623.793 221.186 623.793 208.135C623.793 195.083 626.418 183.069 631.669 173.069C636.919 163.068 644.256 155.281 653.679 149.708C663.092 144.135 674.112 141.353 686.709 141.353C697.01 141.353 705.075 143.945 710.885 149.12C716.694 154.304 719.599 161.483 719.599 170.656C719.599 183.378 713.071 193 700.004 199.52C686.938 206.041 668.232 209.501 643.877 209.899L640.622 192.391C657.881 192.192 671.327 190.347 680.939 186.838C690.552 183.328 695.363 178.523 695.363 172.431C695.363 169.679 694.265 167.495 692.069 165.89C689.873 164.285 686.768 163.477 682.766 163.477C675.609 163.477 669.31 165.232 663.86 168.742C658.41 172.251 654.158 177.186 651.113 183.548C648.059 189.909 646.502 197.317 646.442 205.772C646.502 212.392 648.668 217.577 652.94 221.316C657.202 225.055 663.111 226.919 670.668 226.919V226.929Z" fill="#450B1F"/>
<path d="M723.871 247.578L727.614 226.53H799.294L795.551 247.578H723.871ZM746.42 247.578L759.027 176.469C759.816 172.141 759.516 168.961 758.139 166.927C756.761 164.893 754.166 163.876 750.363 163.876C745.172 163.876 739.832 164.634 734.312 166.139L731.657 144.703C735.66 143.586 739.712 142.749 743.815 142.19C747.917 141.632 752.14 141.353 756.472 141.353C767.961 141.353 775.857 144.483 780.149 150.745C784.451 157.006 785.449 166.628 783.153 179.609L771.145 247.568H746.43L746.42 247.578ZM779.21 202.043L781.965 165.95H786.887C789.053 158.083 792.776 152.021 798.066 147.754C803.347 143.496 809.865 141.363 817.611 141.363C828.112 141.363 835.558 144.842 839.96 151.792C844.352 158.741 845.51 168.771 843.404 181.883H818.589C819.507 175.98 819.048 171.523 817.211 168.502C815.375 165.491 812.29 163.976 807.958 163.976C803.626 163.976 799.703 165.172 795.99 167.565C792.277 169.958 788.983 173.926 786.098 179.47C783.213 185.013 780.907 192.531 779.21 202.043Z" fill="#450B1F"/>
<path d="M845.899 294L835.269 273.252C850.431 267.02 863.657 259.861 874.946 251.765C886.236 243.669 895.918 234.377 903.994 223.878C912.069 213.389 918.717 201.484 923.927 188.174C929.148 174.863 933.231 159.918 936.185 143.327H961C956.009 169.23 948.692 191.733 939.04 210.847C929.388 229.96 916.94 246.272 901.678 259.772C886.416 273.281 867.819 284.688 845.899 294ZM878.879 141.363C888.262 179.978 900.74 209.192 916.291 228.993L895.619 241.974C887.344 229.651 879.768 215.303 872.87 198.952C865.983 182.59 859.614 164.055 853.765 143.337L878.869 141.373L878.879 141.363Z" fill="#450B1F"/>
</svg>
